<svg width="32" height="32" viewBox="0 0 32 32" fill="none" xmlns="http://www.w3.org/2000/svg">
  <defs>
    <linearGradient id="favicon-gradient" x1="0%" y1="0%" x2="100%" y2="100%">
      <stop offset="0%" style="stop-color:#2563eb;stop-opacity:1" />
      <stop offset="50%" style="stop-color:#7c3aed;stop-opacity:1" />
      <stop offset="100%" style="stop-color:#ea580c;stop-opacity:1" />
    </linearGradient>
  </defs>
  
  <!-- Background circle -->
  <circle cx="16" cy="16" r="16" fill="url(#favicon-gradient)"/>
  
  <!-- Stylized 'S' with comb elements -->
  <path d="M 20 8 C 20 8 22 8 22 10 C 22 12 20 12 18 12 L 14 12 C 12 12 10 12 10 14 C 10 16 12 16 14 16 L 18 16 C 20 16 22 16 22 18 C 22 20 20 20 18 20 L 14 20 C 12 20 10 20 10 22 C 10 24 12 24 12 24" 
        stroke="white" 
        stroke-width="2.5" 
        stroke-linecap="round" 
        fill="none"/>
  
  <!-- Comb teeth (right side) -->
  <line x1="22" y1="10" x2="24" y2="10" stroke="white" stroke-width="1.5" stroke-linecap="round"/>
  <line x1="22" y1="13" x2="24" y2="13" stroke="white" stroke-width="1.5" stroke-linecap="round"/>
  <line x1="22" y1="16" x2="24" y2="16" stroke="white" stroke-width="1.5" stroke-linecap="round"/>
  <line x1="22" y1="19" x2="24" y2="19" stroke="white" stroke-width="1.5" stroke-linecap="round"/>
  
  <!-- Comb teeth (left side) -->
  <line x1="10" y1="14" x2="8" y2="14" stroke="white" stroke-width="1.5" stroke-linecap="round"/>
  <line x1="10" y1="17" x2="8" y2="17" stroke="white" stroke-width="1.5" stroke-linecap="round"/>
  <line x1="10" y1="20" x2="8" y2="20" stroke="white" stroke-width="1.5" stroke-linecap="round"/>
</svg>
